<?xml version="1.0" encoding="utf-8"?>
<!-- Generator: Adobe Illustrator 25.2.0, SVG Export Plug-In . SVG Version: 6.00 Build 0)  -->
<svg version="1.1" id="Layer_1" xmlns="http://www.w3.org/2000/svg" xmlns:xlink="http://www.w3.org/1999/xlink" x="0px" y="0px"
	 viewBox="0 0 1920 1080" style="enable-background:new 0 0 1920 1080;" xml:space="preserve">
<style type="text/css">
	.st0{fill:none;stroke:#993838;stroke-width:2;stroke-linecap:round;}
	.st1{clip-path:url(#SVGID_2_);}
	.st2{fill:#993838;}
	.st3{clip-path:url(#SVGID_4_);}
	.st4{fill:none;stroke:#993838;stroke-width:2;}
	.st5{clip-path:url(#SVGID_6_);}
	.st6{clip-path:url(#SVGID_8_);}
	.st7{clip-path:url(#SVGID_10_);}
	.st8{clip-path:url(#SVGID_12_);}
	.st9{clip-path:url(#SVGID_14_);}
	.st10{clip-path:url(#SVGID_16_);}
</style>
<g id="Group_1051">
	<g id="Group_1045" transform="translate(20 1)">
		<path id="Path_42144" class="st0" d="M72,50.8h1742"/>
		<g id="Group_1043" transform="translate(48 49.5)">
			<g>
				<defs>
					<rect id="SVGID_1_" x="-0.5" y="0.2" width="29.1" height="27.9"/>
				</defs>
				<clipPath id="SVGID_2_">
					<use xlink:href="#SVGID_1_"  style="overflow:visible;"/>
				</clipPath>
				<g id="Group_1042" transform="translate(0 0)" class="st1">
					<path id="Path_42136" class="st2" d="M13.2,28.1c-0.6,0-1.3,0-1.9-0.1c-3.7-0.5-7.1-2.4-9.4-5.4C-2,17.5-1,10.3,4,6.4
						C8.2,3.2,14.1,4,17.3,8.2c2.6,3.4,2,8.3-1.4,10.9c-0.6,0.4-1.4,0.3-1.8-0.2c-0.4-0.6-0.3-1.4,0.2-1.8c2.3-1.8,2.7-5,1-7.3
						c-2.3-3-6.6-3.6-9.7-1.3c0,0,0,0,0,0c-3.9,3-4.7,8.6-1.7,12.6c3.9,5.1,11.2,6,16.2,2.2c0,0,0,0,0,0c6.5-5,7.7-14.3,2.8-20.9
						c-0.4-0.6-0.3-1.4,0.2-1.8s1.4-0.3,1.8,0.2l0,0c5.9,7.7,4.4,18.6-3.2,24.5C19.3,27.1,16.3,28.1,13.2,28.1"/>
				</g>
			</g>
		</g>
		<g id="Group_1044" transform="translate(1809.43 49.5)">
			<g>
				<defs>
					<rect id="SVGID_3_" x="-0.5" y="0.2" width="29.1" height="27.9"/>
				</defs>
				<clipPath id="SVGID_4_">
					<use xlink:href="#SVGID_3_"  style="overflow:visible;"/>
				</clipPath>
				<g id="Group_1042-2" transform="translate(0 0)" class="st3">
					<path id="Path_42136-2" class="st2" d="M14.9,28.1c0.6,0,1.3,0,1.9-0.1c3.7-0.5,7.1-2.4,9.4-5.4c3.9-5.1,2.9-12.3-2.1-16.2
						C19.9,3.2,14,4,10.8,8.2c-2.6,3.4-2,8.3,1.4,10.9c0.6,0.4,1.4,0.3,1.8-0.2c0.4-0.6,0.3-1.4-0.2-1.8l0,0c-2.3-1.8-2.7-5-1-7.3
						c2.3-3,6.6-3.6,9.7-1.3c0,0,0,0,0,0c3.9,3,4.7,8.6,1.7,12.6c-3.9,5.1-11.2,6-16.2,2.2c0,0,0,0,0,0c-6.5-5-7.7-14.3-2.8-20.9
						C5.6,1.8,5.5,1,5,0.5S3.6,0.1,3.2,0.7c0,0,0,0-0.1,0.1c-5.9,7.7-4.4,18.6,3.2,24.5C8.8,27.1,11.8,28.1,14.9,28.1"/>
				</g>
			</g>
		</g>
	</g>
	<g id="Group_1050" transform="translate(68 1001.104)">
		<line id="Line_635" class="st4" x1="24" y1="27.1" x2="1766" y2="27.1"/>
		<g id="Group_1043-2" transform="translate(0 0)">
			<g>
				<defs>
					<rect id="SVGID_5_" x="-0.5" y="0.2" width="29.1" height="27.9"/>
				</defs>
				<clipPath id="SVGID_6_">
					<use xlink:href="#SVGID_5_"  style="overflow:visible;"/>
				</clipPath>
				<g id="Group_1042-3" transform="translate(0 0)" class="st5">
					<path id="Path_42136-3" class="st2" d="M13.2,0.2c-0.6,0-1.3,0-1.9,0.1C7.5,0.9,4.2,2.8,1.9,5.8C-2,10.9-1,18.1,4,22
						c4.1,3.2,10.1,2.4,13.3-1.8c2.6-3.4,2-8.3-1.4-10.9C15.3,8.9,14.5,9,14,9.5s-0.3,1.4,0.2,1.8l0,0c2.3,1.8,2.7,5,1,7.3
						c-2.3,3-6.6,3.6-9.7,1.3c0,0,0,0,0,0c-3.9-3-4.7-8.7-1.7-12.6c3.9-5.1,11.2-6,16.2-2.2c0,0,0,0,0,0c6.5,5,7.7,14.3,2.8,20.9
						c-0.4,0.6-0.3,1.4,0.2,1.8c0.6,0.4,1.4,0.3,1.8-0.2l0,0C30.8,20,29.4,9,21.7,3.2C19.3,1.3,16.3,0.2,13.2,0.2"/>
				</g>
			</g>
		</g>
		<g id="Group_1044-2" transform="translate(1761.43 0)">
			<g>
				<defs>
					<rect id="SVGID_7_" x="-0.5" y="0.2" width="29.1" height="27.9"/>
				</defs>
				<clipPath id="SVGID_8_">
					<use xlink:href="#SVGID_7_"  style="overflow:visible;"/>
				</clipPath>
				<g id="Group_1042-4" transform="translate(0 0)" class="st6">
					<path id="Path_42136-4" class="st2" d="M14.9,0.2c0.6,0,1.3,0,1.9,0.1c3.7,0.5,7.1,2.4,9.4,5.4c3.9,5.1,2.9,12.3-2.1,16.2
						c-4.1,3.2-10.1,2.4-13.3-1.8c-2.6-3.4-2-8.3,1.4-10.9C12.8,8.9,13.6,9,14,9.5s0.3,1.4-0.2,1.8l0,0c-2.3,1.8-2.7,5-1,7.3
						c2.3,3,6.6,3.6,9.7,1.3c0,0,0,0,0,0c3.9-3,4.7-8.7,1.7-12.6C20.3,2.3,13,1.3,7.9,5.2c0,0,0,0,0,0c-6.5,5-7.7,14.3-2.8,20.9
						c0.5,0.5,0.4,1.3-0.1,1.8s-1.3,0.4-1.8-0.1c0,0-0.1-0.1-0.1-0.1C-2.8,20-1.3,9,6.3,3.2C8.8,1.3,11.8,0.2,14.9,0.2"/>
				</g>
			</g>
		</g>
	</g>
	<g id="Group_1048" transform="translate(33)">
		<g id="Group_1043-3" transform="translate(45.896 83) rotate(90)">
			<g>
				<defs>
					<rect id="SVGID_9_" x="0.8" y="-0.1" width="27.9" height="29.1"/>
				</defs>
				<clipPath id="SVGID_10_">
					<use xlink:href="#SVGID_9_"  style="overflow:visible;"/>
				</clipPath>
				<g id="Group_1042-5" class="st7">
					<path id="Path_42136-5" class="st2" d="M13.9,0.5c-0.6,0-1.3,0-1.9,0.1C8.3,1.1,4.9,3.1,2.6,6c-3.9,5.1-2.9,12.3,2.1,16.2
						c4.1,3.2,10.1,2.4,13.3-1.8c2.6-3.4,2-8.3-1.4-10.9c-0.6-0.4-1.4-0.3-1.8,0.2s-0.3,1.4,0.2,1.8c2.3,1.8,2.7,5,1,7.3
						c-2.3,3-6.6,3.6-9.7,1.3c0,0,0,0,0,0c-3.9-3-4.7-8.7-1.7-12.6c3.9-5.1,11.2-6,16.2-2.2c0,0,0,0,0,0c6.5,5,7.7,14.3,2.8,20.9
						c-0.4,0.6-0.3,1.4,0.2,1.8c0.6,0.4,1.4,0.3,1.8-0.2l0,0c5.9-7.7,4.4-18.6-3.2-24.5C20,1.5,17,0.5,13.9,0.5"/>
				</g>
			</g>
		</g>
		<g id="Group_1047">
			<line id="Line_635-2" class="st0" x1="18.5" y1="107.8" x2="18.5" y2="972.8"/>
			<g id="Group_1044-3" transform="translate(45.896 967.431) rotate(90)">
				<g>
					<defs>
						<rect id="SVGID_11_" x="0.8" y="-0.1" width="27.9" height="29.1"/>
					</defs>
					<clipPath id="SVGID_12_">
						<use xlink:href="#SVGID_11_"  style="overflow:visible;"/>
					</clipPath>
					<g id="Group_1042-6" transform="translate(0)" class="st8">
						<path id="Path_42136-6" class="st2" d="M15.7,0.5c0.6,0,1.3,0,1.9,0.1c3.7,0.5,7.1,2.4,9.4,5.4c3.9,5.1,2.9,12.3-2.1,16.2
							c-4.1,3.2-10.1,2.4-13.3-1.8c-2.6-3.4-2-8.3,1.4-10.9c0.6-0.4,1.4-0.3,1.8,0.2s0.3,1.4-0.2,1.8c-2.3,1.8-2.7,5-1,7.3
							c2.3,3,6.6,3.6,9.7,1.3c0,0,0,0,0,0c3.9-3,4.7-8.7,1.7-12.6C21,2.5,13.7,1.6,8.7,5.5c0,0,0,0,0,0c-6.5,5-7.7,14.3-2.8,20.9
							c0.5,0.5,0.4,1.3-0.1,1.8S4.4,28.5,3.9,28c0,0-0.1-0.1-0.1-0.1C-2,20.2-0.6,9.3,7.1,3.4C9.5,1.5,12.6,0.5,15.7,0.5"/>
					</g>
				</g>
			</g>
		</g>
	</g>
	<g id="Group_1049" transform="translate(1842.104 83)">
		<g id="Group_1043-4" transform="translate(27.896 0) rotate(90)">
			<g>
				<defs>
					<rect id="SVGID_13_" x="0.8" y="-0.1" width="27.9" height="29.1"/>
				</defs>
				<clipPath id="SVGID_14_">
					<use xlink:href="#SVGID_13_"  style="overflow:visible;"/>
				</clipPath>
				<g id="Group_1042-7" transform="translate(0 0)" class="st9">
					<path id="Path_42136-7" class="st2" d="M13.9,28.4c-0.6,0-1.3,0-1.9-0.1c-3.7-0.5-7.1-2.4-9.4-5.4c-3.9-5.1-2.9-12.3,2.1-16.2
						C8.9,3.5,14.9,4.3,18,8.4c2.6,3.4,2,8.3-1.4,10.9c-0.6,0.4-1.4,0.3-1.8-0.2c-0.4-0.6-0.3-1.4,0.2-1.8c2.3-1.8,2.7-5,1-7.3
						c-2.3-3-6.6-3.6-9.7-1.3c0,0,0,0,0,0c-3.9,3-4.7,8.6-1.7,12.6c3.9,5.1,11.2,6,16.2,2.2c0,0,0,0,0,0c6.5-5,7.7-14.3,2.8-20.9
						c-0.4-0.6-0.3-1.4,0.2-1.8c0.6-0.4,1.4-0.3,1.8,0.2c0,0,0,0,0,0c5.9,7.7,4.4,18.6-3.2,24.5C20,27.4,17,28.4,13.9,28.4"/>
				</g>
			</g>
		</g>
		<g id="Group_1047-2" transform="translate(0 24.501)">
			<line id="Line_635-3" class="st4" x1="26.4" y1="0.2" x2="26.4" y2="865.2"/>
			<g id="Group_1044-4" transform="translate(27.896 859.929) rotate(90)">
				<g>
					<defs>
						<rect id="SVGID_15_" x="0.8" y="-0.1" width="27.9" height="29.1"/>
					</defs>
					<clipPath id="SVGID_16_">
						<use xlink:href="#SVGID_15_"  style="overflow:visible;"/>
					</clipPath>
					<g id="Group_1042-8" transform="translate(0 0)" class="st10">
						<path id="Path_42136-8" class="st2" d="M15.7,28.4c0.6,0,1.3,0,1.9-0.1c3.7-0.5,7.1-2.4,9.4-5.4c3.9-5.1,2.9-12.3-2.1-16.2
							c-4.1-3.2-10.1-2.4-13.3,1.8c-2.6,3.4-2,8.3,1.4,10.9c0.6,0.4,1.4,0.3,1.8-0.2c0.4-0.6,0.3-1.4-0.2-1.8l0,0
							c-2.3-1.8-2.7-5-1-7.3c2.3-3,6.6-3.6,9.7-1.3c0,0,0,0,0,0c3.9,3,4.7,8.6,1.7,12.6c-3.9,5.1-11.2,6-16.2,2.2c0,0,0,0,0,0
							c-6.5-5-7.7-14.3-2.8-20.9C6.3,2,6.3,1.2,5.7,0.8S4.4,0.4,3.9,0.9c0,0,0,0-0.1,0.1C-2,8.7-0.6,19.6,7.1,25.5
							C9.5,27.4,12.6,28.4,15.7,28.4"/>
					</g>
				</g>
			</g>
		</g>
	</g>
</g>
</svg>
