<svg xmlns="http://www.w3.org/2000/svg" xmlns:xlink="http://www.w3.org/1999/xlink" viewBox="0 0 190.73 276.31"><defs><style>.cls-1{fill:none;}.cls-2{clip-path:url(#clip-path);}.cls-3{fill:#750787;}.cls-4{fill:#004dff;}.cls-5{fill:#008026;}.cls-6{fill:#ffed00;}.cls-7{fill:#ff8c00;}.cls-8{fill:#e40303;}.cls-9{fill:#fff;}.cls-10{fill:#ffafc8;}.cls-11{fill:#74d7ee;}.cls-12{fill:#613915;}</style><clipPath id="clip-path" transform="translate(0.16 0.2)"><rect class="cls-1" width="191" height="277" rx="21"/></clipPath></defs><g id="Layer_2" data-name="Layer 2"><g id="Layer_1-2" data-name="Layer 1"><g id="Component_69_66" data-name="Component 69 66"><g class="cls-2"><g id="Mask_Group_29-22" data-name="Mask Group 29-22"><g id="LGBTQ_rainbow_flag_Quasar_Progress_variant-22" data-name="LGBTQ  rainbow flag Quasar  Progress  variant-22"><rect id="Rectangle_648-22" data-name="Rectangle 648-22" class="cls-3" width="190.45" height="276.31"/><rect id="Rectangle_649-22" data-name="Rectangle 649-22" class="cls-4" x="31.96" width="158.49" height="276.31"/><rect id="Rectangle_650-22" data-name="Rectangle 650-22" class="cls-5" x="63.92" width="126.53" height="276.31"/><rect id="Rectangle_651-22" data-name="Rectangle 651-22" class="cls-6" x="95.22" width="95.22" height="276.31"/><rect id="Rectangle_652-22" data-name="Rectangle 652-22" class="cls-7" x="127.18" width="63.27" height="276.31"/><rect id="Rectangle_653-22" data-name="Rectangle 653-22" class="cls-8" x="158.49" width="31.96" height="276.31"/><path id="Path_42139-22" data-name="Path 42139-22" class="cls-9" d="M142.52-.1,95.22,43.65,47.92-.1Z" transform="translate(0.16 0.2)"/><path id="Path_42140-22" data-name="Path 42140-22" class="cls-10" d="M142.52-.1h24L95.22,65.26,23.89-.1h24l47.3,43.75Z" transform="translate(0.16 0.2)"/><path id="Path_42141-22" data-name="Path 42141-22" class="cls-11" d="M166.54-.1h24l-95.35,88L-.14-.1h24L95.22,65.26Z" transform="translate(0.16 0.2)"/><path id="Path_42142-22" data-name="Path 42142-22" class="cls-12" d="M190.57-.1l-95.35,88L-.14-.1V22l95.36,87.58L190.57,22Z" transform="translate(0.16 0.2)"/><path id="Path_42143-22" data-name="Path 42143-22" d="M190.57,22V44.11L95.22,131.69-.14,44.11V22l95.36,87.58Z" transform="translate(0.16 0.2)"/></g></g></g></g></g></g></svg>