<svg xmlns="http://www.w3.org/2000/svg" xmlns:xlink="http://www.w3.org/1999/xlink" width="27.896" height="913.5" viewBox="0 0 27.896 913.5">
  <defs>
    <clipPath id="clip-path">
      <rect id="Rectangle_498" data-name="Rectangle 498" width="29.07" height="27.896" transform="translate(0 0)" fill="#993838"/>
    </clipPath>
  </defs>
  <g id="Group_1048" data-name="Group 1048" transform="translate(-18 -83)">
    <g id="Group_1043" data-name="Group 1043" transform="translate(45.896 83) rotate(90)">
      <g id="Group_1042" data-name="Group 1042" clip-path="url(#clip-path)">
        <path id="Path_42136" data-name="Path 42136" d="M13.654,0A13.873,13.873,0,0,0,11.77.127a14.062,14.062,0,0,0-9.387,5.42A11.552,11.552,0,0,0,4.522,21.735a9.463,9.463,0,0,0,13.263-1.752A7.808,7.808,0,0,0,16.342,9.052a1.284,1.284,0,1,0-1.564,2.037,5.239,5.239,0,0,1,.97,7.335A6.884,6.884,0,0,1,6.086,19.7,8.98,8.98,0,0,1,4.42,7.111a11.591,11.591,0,0,1,16.26-2.149,14.9,14.9,0,0,1,2.758,20.866,1.284,1.284,0,1,0,2.037,1.564A17.472,17.472,0,0,0,22.244,2.926,14.069,14.069,0,0,0,13.654,0" transform="translate(-0.001 -0.001)" fill="#993838"/>
      </g>
    </g>
    <g id="Group_1047" data-name="Group 1047">
      <line id="Line_635" data-name="Line 635" y2="864.999" transform="translate(19 107.501)" fill="none" stroke="#993838" stroke-linecap="round" stroke-width="2"/>
      <g id="Group_1044" data-name="Group 1044" transform="translate(45.896 967.431) rotate(90)">
        <g id="Group_1042-2" data-name="Group 1042" transform="translate(0)" clip-path="url(#clip-path)">
          <path id="Path_42136-2" data-name="Path 42136" d="M15.416,0A13.873,13.873,0,0,1,17.3.127a14.062,14.062,0,0,1,9.387,5.42,11.552,11.552,0,0,1-2.138,16.188,9.463,9.463,0,0,1-13.263-1.752A7.808,7.808,0,0,1,12.728,9.052a1.284,1.284,0,1,1,1.564,2.037,5.239,5.239,0,0,0-.97,7.335A6.884,6.884,0,0,0,22.984,19.7,8.98,8.98,0,0,0,24.65,7.111,11.591,11.591,0,0,0,8.391,4.963,14.9,14.9,0,0,0,5.632,25.829,1.284,1.284,0,1,1,3.6,27.393,17.472,17.472,0,0,1,6.826,2.926,14.069,14.069,0,0,1,15.416,0" transform="translate(0.001 -0.001)" fill="#993838"/>
        </g>
      </g>
    </g>
  </g>
</svg>
