<svg id="Group_1049" data-name="Group 1049" xmlns="http://www.w3.org/2000/svg" xmlns:xlink="http://www.w3.org/1999/xlink" width="27.896" height="913.5" viewBox="0 0 27.896 913.5">
  <defs>
    <clipPath id="clip-path">
      <rect id="Rectangle_498" data-name="Rectangle 498" width="29.07" height="27.896" transform="translate(0 0)" fill="#993838"/>
    </clipPath>
  </defs>
  <g id="Group_1043" data-name="Group 1043" transform="translate(27.896 0) rotate(90)">
    <g id="Group_1042" data-name="Group 1042" transform="translate(0 0)" clip-path="url(#clip-path)">
      <path id="Path_42136" data-name="Path 42136" d="M13.654,27.9a13.873,13.873,0,0,1-1.884-.127,14.062,14.062,0,0,1-9.387-5.42A11.552,11.552,0,0,1,4.521,6.162,9.463,9.463,0,0,1,17.784,7.915a7.808,7.808,0,0,1-1.443,10.931,1.284,1.284,0,1,1-1.564-2.037,5.239,5.239,0,0,0,.97-7.335A6.884,6.884,0,0,0,6.086,8.2,8.98,8.98,0,0,0,4.42,20.786a11.591,11.591,0,0,0,16.259,2.149A14.9,14.9,0,0,0,23.438,2.068,1.284,1.284,0,1,1,25.474.5a17.472,17.472,0,0,1-3.231,24.468A14.069,14.069,0,0,1,13.654,27.9" transform="translate(-0.001 0)" fill="#993838"/>
    </g>
  </g>
  <g id="Group_1047" data-name="Group 1047" transform="translate(0 24.501)">
    <line id="Line_635" data-name="Line 635" y2="864.999" transform="translate(26.896)" fill="none" stroke="#993838" stroke-width="2"/>
    <g id="Group_1044" data-name="Group 1044" transform="translate(27.896 859.929) rotate(90)">
      <g id="Group_1042-2" data-name="Group 1042" transform="translate(0 0)" clip-path="url(#clip-path)">
        <path id="Path_42136-2" data-name="Path 42136" d="M15.415,27.9A13.873,13.873,0,0,0,17.3,27.77a14.062,14.062,0,0,0,9.387-5.42A11.552,11.552,0,0,0,24.548,6.162,9.463,9.463,0,0,0,11.286,7.915a7.808,7.808,0,0,0,1.443,10.931,1.284,1.284,0,1,0,1.564-2.037,5.239,5.239,0,0,1-.97-7.335A6.884,6.884,0,0,1,22.984,8.2,8.98,8.98,0,0,1,24.65,20.786,11.591,11.591,0,0,1,8.391,22.935,14.9,14.9,0,0,1,5.632,2.068,1.284,1.284,0,1,0,3.6.5,17.472,17.472,0,0,0,6.826,24.972,14.069,14.069,0,0,0,15.415,27.9" transform="translate(0.001 0)" fill="#993838"/>
      </g>
    </g>
  </g>
</svg>
